<svg width="107" height="100" viewBox="0 0 107 100" fill="none" xmlns="http://www.w3.org/2000/svg">
<path d="M9.49384 53.1926C9.2437 52.9683 8.93819 52.8716 8.5773 52.9025C8.22175 52.9275 7.8864 53.1157 7.57126 53.4671C7.30419 53.7649 7.15574 54.0562 7.1259 54.3411C7.09011 54.6206 7.17644 54.8539 7.38489 55.0408C7.49209 55.137 7.60905 55.2043 7.73578 55.2427C7.85654 55.2758 7.99806 55.2737 8.16034 55.2366C8.32199 55.1882 8.5044 55.1046 8.70756 54.9859C8.91606 54.8613 9.16165 54.6893 9.44432 54.47C10.151 53.9217 10.7992 53.6004 11.3889 53.506C11.9786 53.4116 12.5474 53.6101 13.0953 54.1015L13.2025 54.1977C13.4944 54.4594 13.7113 54.7507 13.8534 55.0716C13.9949 55.3811 14.0608 55.7089 14.0513 56.055C14.0418 56.4011 13.9562 56.7542 13.7945 57.1142C13.6328 57.4743 13.3943 57.83 13.0792 58.1814C12.7106 58.5923 12.3282 58.9048 11.932 59.119C11.5351 59.3219 11.142 59.4367 10.7525 59.4635C10.3571 59.485 9.97439 59.4265 9.60428 59.288C9.22822 59.1442 8.87641 58.9254 8.54886 58.6316L8.28085 58.3912L9.33846 57.212L9.55286 57.4043C9.92806 57.7408 10.325 57.9034 10.7436 57.8919C11.1616 57.8692 11.5762 57.6286 11.9875 57.17C12.308 56.8126 12.4682 56.4782 12.4683 56.1666C12.4684 55.855 12.3612 55.6031 12.1468 55.4108C12.0455 55.32 11.9342 55.2524 11.8128 55.208C11.6855 55.1583 11.546 55.146 11.3944 55.1712C11.2369 55.1911 11.0589 55.2518 10.8605 55.3532C10.662 55.4547 10.4352 55.6058 10.1798 55.8066C9.84312 56.0742 9.51557 56.3016 9.19717 56.4889C8.87281 56.6708 8.55103 56.796 8.23183 56.8643C7.91797 56.9267 7.60577 56.9153 7.29522 56.8302C6.98467 56.7451 6.67455 56.5637 6.36486 56.286L6.31126 56.2379C6.05517 56.0082 5.86533 55.7466 5.74173 55.4531C5.61752 55.1482 5.5578 54.8314 5.56259 54.5026C5.57271 54.1678 5.65062 53.8293 5.79631 53.4871C5.94734 53.139 6.16974 52.8011 6.46352 52.4736C6.79469 52.1043 7.14207 51.8249 7.50565 51.6351C7.86329 51.4401 8.2169 51.3274 8.5665 51.297C8.92143 51.2607 9.25776 51.2991 9.57549 51.4121C9.89857 51.5192 10.1881 51.6876 10.4442 51.9173L10.7658 52.2057L9.70824 53.3849L9.49384 53.1926ZM18.541 55.4345L17.5315 56.5601L11.3138 50.9836L12.3234 49.858L12.9666 50.4349L13.1108 50.2741C12.9734 49.936 12.9407 49.595 13.0127 49.2512C13.0787 48.902 13.2693 48.5517 13.5844 48.2004C13.8194 47.9383 14.0917 47.7366 14.4013 47.5951C14.7162 47.4477 15.0493 47.3757 15.4008 47.3793C15.7516 47.3716 16.1124 47.4426 16.4831 47.5924C16.8591 47.7362 17.2258 47.9684 17.5832 48.2889L17.744 48.4331C18.1073 48.7589 18.3835 49.098 18.5726 49.4503C18.7617 49.8026 18.8771 50.1532 18.9187 50.5022C18.9544 50.8458 18.916 51.1822 18.8036 51.5112C18.6906 51.8289 18.5112 52.1248 18.2655 52.3987C18.0839 52.6012 17.9055 52.7582 17.7302 52.8697C17.555 52.9812 17.3809 53.0615 17.208 53.1105C17.0404 53.1536 16.8772 53.1739 16.7184 53.1712C16.559 53.1572 16.4047 53.1316 16.2553 53.0944L16.1111 53.2552L18.541 55.4345ZM16.865 51.8035C17.1801 51.4522 17.3267 51.0731 17.3045 50.6664C17.2818 50.2484 17.0829 49.8712 16.7077 49.5347L16.6005 49.4385C16.2252 49.102 15.8316 48.9478 15.4196 48.9759C15.0069 48.9926 14.6431 49.1767 14.3279 49.5281C14.0128 49.8795 13.8695 50.2668 13.8982 50.6902C13.9263 51.1022 14.122 51.4711 14.4852 51.7969L14.5924 51.8931C14.9557 52.2189 15.3467 52.3761 15.7653 52.3647C16.1833 52.342 16.5498 52.1549 16.865 51.8035ZM22.7877 45.8109C22.9608 46.1811 23.0107 46.5268 22.9375 46.848C22.8584 47.1639 22.6906 47.4648 22.4343 47.7506C22.1939 48.0186 21.9163 48.2263 21.6014 48.3738C21.2918 48.5152 20.9586 48.5872 20.6018 48.5896C20.2451 48.592 19.8786 48.5212 19.5026 48.3774C19.1319 48.2276 18.7678 47.9924 18.4105 47.672L18.2676 47.5438C17.9162 47.2286 17.6459 46.8949 17.4568 46.5426C17.2677 46.1903 17.1524 45.8397 17.1107 45.4907C17.0691 45.1417 17.0991 44.8087 17.2009 44.4916C17.302 44.1631 17.4701 43.8679 17.7051 43.6059C17.9882 43.2902 18.2688 43.0852 18.5469 42.9907C18.8304 42.8904 19.136 42.8851 19.4638 42.9749L19.608 42.8141L19.072 42.3334L20.0816 41.2078L23.1725 43.98C23.3512 44.1402 23.5126 44.1399 23.6568 43.9791L23.8091 43.8094L24.8811 44.7708L24.192 45.5391C24.0104 45.7416 23.8013 45.8549 23.5647 45.8791C23.3334 45.8974 23.1225 45.821 22.9319 45.6501L22.7877 45.8109ZM21.5866 46.539C21.8804 46.2115 22.0082 45.8533 21.97 45.4645C21.926 45.0703 21.7163 44.705 21.3411 44.3684L21.2339 44.2723C20.8587 43.9358 20.4758 43.7697 20.0851 43.7739C19.6885 43.7728 19.3433 43.936 19.0495 44.2636C18.7557 44.5911 18.6309 44.952 18.675 45.3462C18.7131 45.735 18.9198 46.0977 19.295 46.4342L19.4022 46.5303C19.7774 46.8668 20.1633 47.0356 20.5599 47.0367C20.9506 47.0325 21.2928 46.8666 21.5866 46.539ZM28.0168 38.0035C28.4501 38.5748 28.6567 39.1952 28.6364 39.8648C28.6215 40.5284 28.331 41.1759 27.7648 41.8072C27.471 42.1348 27.1453 42.3961 26.7876 42.5911C26.4354 42.7802 26.0704 42.8936 25.6929 42.9311C25.3154 42.9686 24.9332 42.9214 24.5465 42.7895C24.1598 42.6575 23.7877 42.4313 23.4304 42.1108L23.3232 42.0147C22.9659 41.6942 22.6977 41.3462 22.5186 40.9707C22.3396 40.5952 22.2423 40.2124 22.2268 39.8224C22.2166 39.4264 22.2834 39.0403 22.4272 38.6643C22.5764 38.2822 22.7952 37.9304 23.0837 37.6088C23.6392 36.9895 24.2486 36.6334 24.9121 36.5407C25.5809 36.442 26.2227 36.5771 26.8376 36.9459L26.13 38.31C25.8359 38.1107 25.5081 38.0209 25.1466 38.0405C24.7851 38.0602 24.4494 38.2427 24.1396 38.5882C23.9954 38.749 23.889 38.9275 23.8204 39.1239C23.7517 39.3202 23.7259 39.5228 23.7429 39.7314C23.754 39.9348 23.8105 40.1413 23.9126 40.3511C24.014 40.5495 24.163 40.7368 24.3595 40.9131L24.4131 40.9612C24.6097 41.1374 24.8121 41.2652 25.0203 41.3446C25.228 41.4126 25.4305 41.4384 25.6279 41.422C25.8253 41.4056 26.0148 41.35 26.1966 41.2551C26.3725 41.1549 26.5325 41.0244 26.6767 40.8636C26.9865 40.5182 27.1352 40.1787 27.1227 39.8451C27.1156 39.5056 26.9902 39.1782 26.7464 38.8628L28.0168 38.0035ZM29.7109 35.6654C29.8472 35.7769 29.996 35.8566 30.1572 35.9045C30.3179 35.9411 30.4826 35.9492 30.6514 35.9286C30.8197 35.8968 30.9837 35.8398 31.1435 35.7574C31.3027 35.6638 31.4464 35.5455 31.5746 35.4026C31.8256 35.1227 31.9703 34.8655 32.0085 34.6312C32.0408 34.3915 32.0178 34.1775 31.9396 33.9891L33.3409 33.505C33.406 33.6601 33.4584 33.8414 33.498 34.0488C33.5316 34.2509 33.5296 34.4748 33.492 34.7205C33.4597 34.9602 33.3775 35.2196 33.2454 35.4987C33.1186 35.7718 32.9243 36.0543 32.6626 36.3462C32.3635 36.6797 32.0375 36.9353 31.6846 37.1132C31.3317 37.291 30.9632 37.3903 30.5791 37.4112C30.2003 37.4261 29.8143 37.3593 29.421 37.2107C29.033 37.0562 28.6544 36.8133 28.2851 36.4822L28.2315 36.4341C27.8921 36.1296 27.6331 35.7953 27.4547 35.4311C27.2816 35.0609 27.1876 34.6865 27.1727 34.3077C27.1578 33.929 27.2169 33.5575 27.35 33.1934C27.4826 32.8179 27.6877 32.4754 27.9655 32.1657C28.3073 31.7845 28.6696 31.5184 29.0523 31.3673C29.429 31.2108 29.8017 31.1367 30.1704 31.145C30.5332 31.148 30.877 31.2199 31.2019 31.3609C31.5209 31.4965 31.7965 31.6685 32.0287 31.8768L32.6273 32.4136L29.7109 35.6654ZM28.9759 33.088C28.7195 33.3739 28.5856 33.6729 28.5743 33.9851C28.557 34.292 28.6196 34.5577 28.7621 34.7822L30.6369 32.6918C30.3964 32.5405 30.1222 32.4988 29.8143 32.5665C29.5118 32.6283 29.2323 32.8021 28.9759 33.088Z" fill="#333333"/>
<path d="M24.8103 0.000209898C29.6494 3.24365 34.4504 6.56732 39.1456 9.99095C29.7236 5.60273 19.3815 2.4477 7.90905 0.698713C17.6744 6.31026 27.0638 12.3712 36.2879 18.6599C28.508 14.8727 20.0852 11.8932 10.8583 9.97163C23.033 17.1797 33.7295 25.1902 43.2115 33.9564C31.2205 43.8717 20.8219 55.9454 12.3514 70.5335C18.0207 65.4323 23.8343 60.5484 29.6809 55.6898C19.9116 67.4211 12.1967 81.2085 7 97.4057C11.2577 92.2352 15.5715 87.2825 19.9457 82.5332C29.2934 68.3605 38.6761 51.6382 51.0747 46.7432C44.8826 53.1923 37.8248 62.5286 30.5285 71.5552C39.1004 63.0629 47.9045 55.2876 56.9647 48.1362C69.8462 62.9401 80.1264 79.508 88.7815 97.6726C87.3724 88.2653 85.2691 79.3209 82.5016 70.8611L92.214 84.6233C92.214 84.6233 86.7691 69.3574 83.0838 63.2047C91.6076 74.9465 99.4388 87.236 106.574 100C102.669 81.2135 96.0108 64.3457 85.8933 49.9699C93.1929 57.2552 100.247 64.9018 107 72.8707C100.027 56.8085 91.3556 42.7362 80.6138 31.2233C89.0255 25.7867 97.6531 20.7793 106.516 16.1479C99.8192 17.3156 93.4483 18.8613 87.2758 20.7543C91.8422 17.3578 96.5629 14.0079 101.292 10.7739C93.3481 13.2751 85.6846 16.187 78.4837 19.4753C87.4065 13.6637 96.5351 8.20437 105.88 2.9679H105.879C91.7694 6.75969 78.5195 11.8284 66.3553 18.4139C54.583 9.6375 40.8403 3.33774 24.8105 0L24.8103 0.000209898Z" fill="#333333"/>
</svg>
