<svg width="30" height="30" viewBox="0 0 30 30" fill="none" xmlns="http://www.w3.org/2000/svg">
<path d="M13.6113 29.3463C13.9845 29.7661 14.4861 30 15.0122 30C15.5322 30 16.0461 29.7592 16.4131 29.3463L27.4062 16.9817C29.0763 15.1032 29.9939 12.6055 30 9.95642C30 7.30046 29.0824 4.80275 27.4123 2.92431C25.7423 1.04587 23.5277 0.0137614 21.1664 0.0137614C18.8479 0.0137614 16.6639 1.01147 15.0061 2.82798C13.3422 1.00459 11.1521 0 8.82749 0C6.47227 0 4.25775 1.03211 2.58768 2.90367C0.917618 4.78211 0 7.27982 0 9.93578C0 12.5849 0.923736 15.0826 2.5938 16.961L13.6113 29.3463ZM3.65212 4.10092C5.03467 2.54587 6.87602 1.68578 8.83361 1.68578C10.7912 1.68578 12.6387 2.54587 14.0273 4.1078L14.48 4.61697C14.6207 4.77523 14.8104 4.86468 15.0122 4.86468C15.208 4.86468 15.4038 4.77523 15.5445 4.61697L15.9849 4.12156C17.3736 2.55963 19.2149 1.69954 21.1786 1.69954C23.1362 1.69954 24.9776 2.55963 26.3601 4.11468C27.7488 5.67661 28.5073 7.74771 28.5073 9.94954C28.5073 12.1514 27.7427 14.2225 26.354 15.7844L15.3548 28.156C15.1774 28.3555 14.8532 28.3555 14.6697 28.156L3.65824 15.7706C2.26958 14.2087 1.50489 12.1376 1.50489 9.93578C1.50489 7.73395 2.26958 5.66284 3.65212 4.10092Z" fill="#333333"/>
<path d="M27.2204 16.2669L15.0796 30L2.93879 16.2669C0.112685 12.6257 0.269944 6.91105 3.28803 3.50344L3.56228 3.19406C6.58062 -0.213401 11.3186 -0.0250716 14.1448 3.61617L15.0796 4.78996L16.0145 3.61617C18.8406 -0.0250716 23.5787 -0.213401 26.5973 3.19406L26.8716 3.50344C29.8893 6.91105 30.0465 12.6257 27.2204 16.2669Z" fill="#333333"/>
</svg>
