<svg width="30" height="30" viewBox="0 0 30 30" fill="none" xmlns="http://www.w3.org/2000/svg">
<path d="M29.4731 11.6511L25.7194 8.45705V3.34885C25.7194 2.77362 25.2711 2.30556 24.7201 2.30556H22.3582C21.8073 2.30556 21.359 2.77362 21.359 3.34885V4.74656L16.3433 0.478677C15.9805 0.170055 15.5023 0 14.9968 0C14.4934 0 14.0174 0.169012 13.6566 0.476022L0.526892 11.651C-0.0696704 12.1585 -0.0338785 12.6006 0.0405215 12.8189C0.11474 13.0368 0.353746 13.4023 1.12009 13.4023H2.91796V28.0981C2.91796 29.1469 3.73299 30 4.7348 30H10.4125C11.4058 30 12.1839 29.1645 12.1839 28.0981V22.0716C12.1839 21.5551 12.6386 21.0848 13.1377 21.0848H16.9531C17.4289 21.0848 17.8161 21.5275 17.8161 22.0716V28.0981C17.8161 29.129 18.6689 30 19.6784 30H25.2652C26.267 30 27.082 29.1468 27.082 28.0981V13.4023H28.8799C29.6463 13.4023 29.8852 13.0368 29.9595 12.8189C30.0339 12.6006 30.0697 12.1585 29.4731 11.6511Z" fill="#333333"/>
</svg>
