<svg width="96" height="100" viewBox="0 0 96 100" fill="none" xmlns="http://www.w3.org/2000/svg">
<path d="M50.002 23.3928C56.462 23.3928 61.6989 18.1561 61.6989 11.6964C61.6989 5.23665 56.462 0 50.002 0C43.542 0 38.3052 5.23665 38.3052 11.6964C38.3052 18.1561 43.542 23.3928 50.002 23.3928Z" fill="white"/>
<path d="M50.002 100C53.8775 100 57.0193 96.8583 57.0193 92.9829C57.0193 89.1075 53.8775 85.9658 50.002 85.9658C46.1264 85.9658 42.9846 89.1075 42.9846 92.9829C42.9846 96.8583 46.1264 100 50.002 100Z" fill="white"/>
<path d="M21.2608 34.1252C27.0752 34.1252 31.7887 29.4119 31.7887 23.5977C31.7887 17.7835 27.0752 13.0702 21.2608 13.0702C15.4464 13.0702 10.7329 17.7835 10.7329 23.5977C10.7329 29.4119 15.4464 34.1252 21.2608 34.1252Z" fill="white"/>
<path d="M78.743 86.9222C81.9729 86.9222 84.5914 84.3039 84.5914 81.074C84.5914 77.8442 81.9729 75.2258 78.743 75.2258C75.513 75.2258 72.8945 77.8442 72.8945 81.074C72.8945 84.3039 75.513 86.9222 78.743 86.9222Z" fill="white"/>
<path d="M9.35519 61.6964C14.5219 61.6964 18.7104 57.5081 18.7104 52.3415C18.7104 47.175 14.5219 42.9867 9.35519 42.9867C4.18846 42.9867 0 47.175 0 52.3415C0 57.5081 4.18846 61.6964 9.35519 61.6964Z" fill="white"/>
<path d="M90.6447 57.0133C93.227 57.0133 95.3204 54.92 95.3204 52.3378C95.3204 49.7555 93.227 47.6622 90.6447 47.6622C88.0624 47.6622 85.969 49.7555 85.969 52.3378C85.969 54.92 88.0624 57.0133 90.6447 57.0133Z" fill="white"/>
<path d="M15.473 75.2942C12.2736 78.4934 12.2736 83.6699 15.473 86.8691C18.6686 90.0684 23.8528 90.0684 27.0484 86.8691C30.2478 83.6699 30.2478 78.4934 27.0484 75.2942C23.8528 72.0911 18.6724 72.0608 15.473 75.2942Z" fill="white"/>
<path d="M78.7392 27.1043C80.6759 27.1043 82.246 25.5344 82.246 23.5977C82.246 21.661 80.6759 20.0911 78.7392 20.0911C76.8025 20.0911 75.2324 21.661 75.2324 23.5977C75.2324 25.5344 76.8025 27.1043 78.7392 27.1043Z" fill="white"/>
</svg>
