<svg width="40" height="40" viewBox="0 0 40 40" fill="none" xmlns="http://www.w3.org/2000/svg">
<path d="M12.2529 7.52837C11.4517 8.02783 10.694 8.60801 10.0021 9.2529C9.73267 9.50368 9.71798 9.92577 9.96946 10.1959C10.1009 10.3366 10.2783 10.4072 10.4571 10.4072C10.6199 10.4072 10.7833 10.3486 10.9121 10.2285C11.5411 9.64169 12.2302 9.11418 12.9593 8.66006C13.2722 8.46531 13.3669 8.05385 13.1721 7.7411C12.978 7.42905 12.5664 7.333 12.2529 7.52837Z" fill="#333333"/>
<path d="M17.5368 5.52715C16.6029 5.68384 15.681 5.93391 14.7971 6.26871C14.4522 6.39937 14.2789 6.78488 14.4103 7.12898C14.511 7.3957 14.7645 7.55982 15.0333 7.55982C15.112 7.55982 15.1927 7.54583 15.2701 7.51644C16.0732 7.21166 16.9104 6.98495 17.7583 6.84225C18.1218 6.7802 18.3666 6.43681 18.3059 6.07333C18.2439 5.71056 17.897 5.46244 17.5368 5.52715Z" fill="#333333"/>
<path d="M11.7273 3.16834C11.8227 3.16834 11.9201 3.14763 12.0122 3.10433C12.7686 2.74625 13.5565 2.43678 14.3549 2.18467C14.7065 2.07393 14.9013 1.6992 14.7899 1.34776C14.6791 0.997653 14.3043 0.802905 13.9534 0.912939C13.0975 1.18302 12.2523 1.51446 11.4418 1.89856C11.1089 2.05658 10.9662 2.45405 11.1236 2.78681C11.2376 3.02767 11.4771 3.16834 11.7273 3.16834Z" fill="#333333"/>
<path d="M7.36525 6.00393C7.52004 6.00393 7.67474 5.95056 7.80083 5.84256C8.43654 5.29504 9.11297 4.78691 9.8141 4.33138C10.123 4.12999 10.2104 3.7172 10.0089 3.40843C9.80816 3.09966 9.39588 3.01229 9.08569 3.21306C8.33593 3.70118 7.61009 4.24604 6.93038 4.83154C6.65083 5.07161 6.61948 5.49307 6.85963 5.77253C6.99237 5.92524 7.1785 6.00393 7.36525 6.00393Z" fill="#333333"/>
<path d="M3.5429 9.78111C3.65696 9.85715 3.78641 9.8938 3.91383 9.8938C4.12928 9.8938 4.33941 9.79111 4.46816 9.59902C4.93579 8.90411 5.45408 8.23461 6.0084 7.60902C6.25254 7.33362 6.22783 6.91216 5.95173 6.66802C5.67625 6.42326 5.25466 6.44725 5.01045 6.72405C4.4161 7.39356 3.86107 8.11113 3.36076 8.85543C3.15603 9.16091 3.2367 9.57503 3.5429 9.78111Z" fill="#333333"/>
<path d="M1.41424 14.526C1.48428 14.5494 1.55495 14.5607 1.62507 14.5607C1.90454 14.5607 2.1647 14.3833 2.25811 14.1039C2.52226 13.3083 2.84316 12.5254 3.21136 11.7758C3.37349 11.445 3.23739 11.0456 2.90648 10.8835C2.57558 10.7195 2.17603 10.8569 2.0139 11.1876C1.61897 11.9912 1.27548 12.8308 0.991946 13.6831C0.875937 14.0325 1.06473 14.4099 1.41424 14.526Z" fill="#333333"/>
<path d="M7.01164 14.708C7.1024 14.75 7.19777 14.77 7.29181 14.77C7.544 14.77 7.78414 14.6273 7.89749 14.3839C8.25975 13.6036 8.69931 12.8561 9.20361 12.1612C9.41976 11.8631 9.3537 11.4456 9.05485 11.2295C8.75732 11.0128 8.33909 11.0795 8.12357 11.3776C7.56925 12.1425 7.08559 12.9641 6.68738 13.8223C6.53205 14.1565 6.67745 14.5526 7.01164 14.708Z" fill="#333333"/>
<path d="M5.73892 16.5419C5.67287 16.8133 5.63089 17.0908 5.58015 17.3669C4.29937 17.5609 3.31079 18.6593 3.31079 19.9937C3.31079 21.4649 4.50754 22.6612 5.97907 22.6612C7.45068 22.6612 8.64735 21.4648 8.64735 19.9937C8.64735 19.8283 8.62867 19.6649 8.59802 19.5035C8.58536 19.4395 8.56597 19.3788 8.55003 19.3161C8.5247 19.2235 8.49867 19.1314 8.46396 19.0414C8.4373 18.9713 8.40595 18.9047 8.3732 18.8379C8.33583 18.7606 8.29581 18.6866 8.25047 18.6132C8.21044 18.5465 8.16706 18.4811 8.12109 18.4184C8.10311 18.3937 8.08904 18.3658 8.06973 18.3411C8.0584 18.3271 8.04174 18.3204 8.02971 18.3077C7.9563 18.2184 7.88227 18.131 7.79753 18.0523C7.79417 18.0489 7.79284 18.0443 7.78885 18.0403C7.76955 18.0223 7.74547 18.0096 7.72483 17.9923C7.61547 17.8969 7.50133 17.8089 7.3786 17.7322C7.36523 17.7249 7.35195 17.7188 7.33928 17.7109C7.1992 17.6275 7.05246 17.5561 6.89768 17.4988H6.89698C6.93833 17.2827 6.98438 17.0673 7.03503 16.8546C7.12173 16.4965 6.90159 16.1364 6.5434 16.0496C6.18717 15.9638 5.82562 16.1838 5.73892 16.5419ZM6.06709 18.6686C6.07311 18.6692 6.0778 18.6733 6.08312 18.6733C6.38534 18.6973 6.66348 18.818 6.88697 19.0234C6.8883 19.0247 6.89033 19.0254 6.89229 19.0268C6.94365 19.0754 6.98969 19.1288 7.03308 19.1855C7.11649 19.2921 7.18051 19.4095 7.22656 19.5343C7.23453 19.5556 7.24055 19.5783 7.24727 19.6003C7.28659 19.727 7.31333 19.8577 7.31333 19.9938C7.31333 20.7293 6.71499 21.3276 5.97915 21.3276C5.24401 21.3276 4.64497 20.7294 4.64497 19.9938C4.64497 19.2582 5.24401 18.66 5.97915 18.66C6.00909 18.6599 6.03708 18.6666 6.06709 18.6686Z" fill="#333333"/>
<path d="M25.3416 7.77314C26.1274 8.11794 26.8845 8.54135 27.5916 9.03291C27.7077 9.11364 27.8404 9.15224 27.9719 9.15224C28.1827 9.15224 28.3908 9.05221 28.5202 8.86551C28.731 8.56339 28.6556 8.14794 28.3527 7.93725C27.5749 7.39708 26.7424 6.93092 25.8772 6.55151C25.5376 6.40349 25.1461 6.55752 24.9987 6.89427C24.8506 7.23164 25.0047 7.62512 25.3416 7.77314Z" fill="#333333"/>
<path d="M31.1032 4.99226C31.288 5.12894 31.4641 5.27899 31.6448 5.4231C31.4494 5.79392 31.328 6.20936 31.328 6.65614C31.328 8.12731 32.5248 9.32362 33.9963 9.32362C35.4678 9.32362 36.6646 8.12723 36.6646 6.65614C36.6646 5.18498 35.4678 3.98866 33.9963 3.98866C33.4567 3.98866 32.9557 4.15207 32.5354 4.4288C32.3232 4.25742 32.1158 4.08205 31.8984 3.92067C31.6015 3.70263 31.1846 3.76398 30.9644 4.05939C30.7456 4.35542 30.8076 4.77289 31.1032 4.99226ZM33.0424 5.72647C33.045 5.72382 33.0484 5.72311 33.0503 5.72046C33.053 5.7178 33.053 5.71444 33.0556 5.71178C33.2965 5.47171 33.6294 5.32236 33.9962 5.32236C34.732 5.32236 35.3304 5.92052 35.3304 6.65614C35.3304 7.39168 34.7321 7.98992 33.9962 7.98992C33.2611 7.98992 32.662 7.39176 32.662 6.65614C32.6621 6.294 32.8082 5.96655 33.0424 5.72647Z" fill="#333333"/>
<path d="M32.7329 14.1325C32.3907 14.2699 32.226 14.6587 32.3634 15.0007C32.6849 15.797 32.9298 16.6292 33.0918 17.4729C33.1525 17.7922 33.432 18.0144 33.7462 18.0144C33.7883 18.0144 33.8296 18.0104 33.8723 18.0023C34.2346 17.933 34.4713 17.5835 34.402 17.2221C34.2245 16.2931 33.9551 15.3781 33.6008 14.5012C33.4613 14.1592 33.0711 13.9958 32.7329 14.1325Z" fill="#333333"/>
<path d="M16.687 1.60121C16.7243 1.60121 16.7623 1.59855 16.801 1.59183C17.6236 1.45046 18.4654 1.36309 19.3039 1.33378C19.6715 1.32042 19.9596 1.01102 19.9463 0.64286C19.9329 0.274776 19.6201 -0.0153155 19.2552 0.000626971C18.358 0.0326683 17.4561 0.125354 16.5742 0.277355C16.2114 0.339405 15.9679 0.684123 16.0299 1.0476C16.0859 1.37246 16.3674 1.60121 16.687 1.60121Z" fill="#333333"/>
<path d="M29.5596 10.7014C30.1586 11.3182 30.701 11.9958 31.1699 12.7154C31.2979 12.9115 31.5108 13.0181 31.7295 13.0181C31.8543 13.0181 31.981 12.9834 32.0931 12.9101C32.4013 12.7088 32.4887 12.296 32.2879 11.9872C31.771 11.1956 31.1752 10.4501 30.5155 9.77252C30.26 9.50774 29.8371 9.50243 29.5723 9.75853C29.3087 10.0159 29.3027 10.4373 29.5596 10.7014Z" fill="#333333"/>
<path d="M37.7646 14.2532C38.0208 15.0468 38.2262 15.8677 38.3743 16.694C38.4316 17.0167 38.7124 17.2435 39.03 17.2435C39.0693 17.2435 39.108 17.2401 39.148 17.2327C39.5109 17.168 39.7518 16.8219 39.687 16.4591C39.529 15.5736 39.3088 14.6933 39.0333 13.8423C38.9198 13.4922 38.5463 13.3001 38.1928 13.4135C37.8426 13.527 37.6512 13.903 37.7646 14.2532Z" fill="#333333"/>
<path d="M36.1983 10.7194C36.409 11.0875 36.6119 11.4703 36.8 11.8571C36.9154 12.0945 37.1528 12.2325 37.401 12.2325C37.4984 12.2325 37.5978 12.2112 37.6919 12.1652C38.0228 12.0044 38.1609 11.605 38.0001 11.2742C37.7986 10.8594 37.5819 10.4492 37.355 10.0551C37.1722 9.73636 36.7646 9.6257 36.4444 9.80904C36.1249 9.99253 36.0142 10.4 36.1983 10.7194Z" fill="#333333"/>
<path d="M19.6815 5.97656C19.6722 6.34464 19.9637 6.65076 20.3319 6.66013C21.1951 6.68217 22.0563 6.78752 22.8914 6.97289C22.9401 6.98359 22.9881 6.98891 23.0362 6.98891C23.3417 6.98891 23.6179 6.77751 23.6873 6.46609C23.7667 6.10668 23.5399 5.75055 23.1804 5.67053C22.2611 5.46648 21.3139 5.35113 20.3653 5.32706C20.36 5.32636 20.3539 5.32635 20.3486 5.32635C19.9877 5.32635 19.6915 5.61379 19.6815 5.97656Z" fill="#333333"/>
<path d="M21.8202 1.40981C22.6554 1.49116 23.4905 1.63058 24.303 1.8226C24.3544 1.83463 24.4064 1.84057 24.4571 1.84057C24.7593 1.84057 25.0335 1.63449 25.1055 1.32775C25.1908 0.969672 24.9687 0.610184 24.6105 0.524845C23.7399 0.318764 22.8447 0.16942 21.9502 0.0826742C21.5779 0.043365 21.2571 0.314778 21.2217 0.680831C21.1858 1.04767 21.4533 1.37378 21.8202 1.40981Z" fill="#333333"/>
<path d="M0.633159 19.6689C0.645197 19.6696 0.656532 19.6703 0.667868 19.6703C1.02074 19.6703 1.31561 19.3935 1.33359 19.0367C1.37627 18.1978 1.475 17.3569 1.62846 16.5386C1.69647 16.1764 1.45765 15.8276 1.0961 15.7604C0.730562 15.6917 0.384959 15.9311 0.317652 16.2932C0.152864 17.1701 0.0467828 18.0704 0.000817086 18.9693C-0.0172409 19.3375 0.266215 19.6502 0.633159 19.6689Z" fill="#333333"/>
<path d="M26.7059 2.56753C27.4871 2.86966 28.2542 3.22711 28.986 3.63123C29.0887 3.68788 29.1994 3.71461 29.3082 3.71461C29.543 3.71461 29.7711 3.58988 29.8925 3.36981C30.0706 3.04768 29.9539 2.64162 29.631 2.46351C28.8459 2.03072 28.024 1.64724 27.1869 1.32386C26.8446 1.19116 26.4571 1.36121 26.3243 1.70531C26.1916 2.0487 26.3623 2.43483 26.7059 2.56753Z" fill="#333333"/>
<path d="M33.45 32.9377C32.869 33.5419 32.2419 34.1114 31.5875 34.6302C31.2987 34.859 31.25 35.2791 31.4795 35.5672C31.6109 35.7333 31.8057 35.8199 32.0025 35.8199C32.1479 35.8199 32.2934 35.7726 32.4161 35.6759C33.1179 35.1191 33.7896 34.5095 34.4113 33.8627C34.6668 33.5973 34.6581 33.1751 34.3933 32.9197C34.1271 32.6649 33.7055 32.6723 33.45 32.9377Z" fill="#333333"/>
<path d="M32.2313 28.0856C32.7543 27.2953 33.2019 26.453 33.5621 25.5801C33.7022 25.24 33.5401 24.8498 33.1999 24.7098C32.861 24.5698 32.4687 24.7305 32.328 25.0719C32.0011 25.8649 31.5942 26.6311 31.1186 27.3487C30.9151 27.6561 30.9992 28.0696 31.3067 28.273C31.4201 28.3483 31.5475 28.3843 31.6742 28.3843C31.8904 28.3843 32.1025 28.279 32.2313 28.0856Z" fill="#333333"/>
<path d="M29.4936 29.352C28.8919 29.9642 28.2262 30.521 27.515 31.0072C27.2115 31.2152 27.1341 31.63 27.3416 31.9341C27.471 32.1228 27.6797 32.2242 27.8932 32.2242C28.0227 32.2242 28.1541 32.1862 28.2695 32.1075C29.0507 31.5727 29.7824 30.9605 30.4448 30.2876C30.7036 30.0249 30.6996 29.6027 30.4368 29.344C30.1746 29.0859 29.7511 29.0892 29.4936 29.352Z" fill="#333333"/>
<path d="M24.8881 38.0166C24.0823 38.2354 23.2524 38.4015 22.4212 38.5095C22.0557 38.5568 21.7982 38.8909 21.8456 39.2563C21.8896 39.5925 22.1758 39.8372 22.506 39.8372C22.5347 39.8372 22.5634 39.8359 22.5927 39.8319C23.4839 39.7159 24.3738 39.5385 25.237 39.3044C25.5925 39.2077 25.8026 38.8416 25.7059 38.4862C25.6098 38.1307 25.2436 37.922 24.8881 38.0166Z" fill="#333333"/>
<path d="M25.257 32.2502C24.4671 32.5903 23.6413 32.8538 22.8008 33.0344C22.4406 33.1111 22.2111 33.4659 22.2884 33.826C22.3558 34.1388 22.6326 34.3528 22.9402 34.3528C22.9862 34.3528 23.0336 34.3481 23.0809 34.3381C24.0062 34.1394 24.9154 33.8493 25.7846 33.4752C26.1222 33.3298 26.2789 32.9377 26.1328 32.5989C25.9874 32.2602 25.5931 32.1055 25.257 32.2502Z" fill="#333333"/>
<path d="M29.2647 18.916C29.2233 18.5499 28.8931 18.2885 28.5263 18.3298C28.16 18.3719 27.8972 18.7026 27.9399 19.0687C27.9752 19.3741 27.9926 19.6856 27.9926 19.9937C27.9926 24.2784 24.6071 27.7875 20.3692 27.9869C20.0724 27.4114 19.5387 26.117 19.9529 24.8726C20.077 24.5018 20.3372 24.4378 21.1644 24.4098C21.9188 24.3845 23.3231 24.3371 23.3231 22.6613C23.3231 21.1568 22.3825 20.732 21.8201 20.4786C21.3398 20.2625 21.3218 20.2245 21.3218 19.9937C21.3218 18.7013 21.6807 17.8217 22.4192 17.3042C24.2316 16.0304 27.7304 17.2735 27.7651 17.2862C28.0132 17.3763 28.2914 17.3109 28.4735 17.1209C28.6563 16.9308 28.7097 16.6514 28.6102 16.4073C27.182 12.9141 23.798 10.6575 19.9876 10.6575C18.2145 10.6575 16.5602 11.163 15.1466 12.0246C15.0273 12.0572 14.9178 12.1206 14.8304 12.2173C12.3122 13.8918 10.6486 16.7507 10.6486 19.9937C10.6486 23.7762 12.9053 27.1607 16.3981 28.6158C16.7383 28.7572 17.1286 28.5971 17.2707 28.2564C17.4128 27.9163 17.252 27.5255 16.9118 27.3841C13.9173 26.1371 11.9827 23.2361 11.9827 19.9938C11.9827 19.715 11.9981 19.4403 12.0254 19.1688C12.1462 19.2209 12.2769 19.2682 12.4243 19.3062C12.4857 19.3223 12.5531 19.3289 12.6098 19.3269C13.9079 19.3269 14.4536 18.8294 14.8532 18.466C15.1767 18.1712 15.3715 17.9932 16.0345 17.9932C16.7797 17.9932 17.412 17.4843 17.6849 16.6648C18.0078 15.6958 17.8384 14.1867 16.4929 12.8056C17.5508 12.2894 18.7335 11.9914 19.9877 11.9914C22.756 11.9914 25.2616 13.3798 26.7051 15.6231C25.2796 15.3357 23.1483 15.1656 21.6554 16.2107C20.5487 16.9849 19.9877 18.2579 19.9877 19.9939C19.9877 21.1156 20.7909 21.4777 21.2712 21.6944C21.7641 21.9165 21.989 22.0185 21.989 22.6614C21.989 23.0108 21.989 23.0475 21.1191 23.0768C20.3733 23.1021 19.1238 23.1442 18.6883 24.4512C17.9265 26.7346 19.3707 28.94 19.4327 29.0334C19.5568 29.2187 19.7649 29.3301 19.9877 29.3301C25.1375 29.3301 29.3268 25.1421 29.3268 19.9938C29.3267 19.6349 29.306 19.2721 29.2647 18.916ZM16.4187 16.2425C16.3521 16.4439 16.216 16.6592 16.0345 16.6592C14.8551 16.6592 14.3555 17.1147 13.954 17.4802C13.6258 17.7796 13.4043 17.9811 12.6798 17.9924C12.4863 17.9331 12.3683 17.8563 12.2969 17.7976C12.7952 16.0551 13.8699 14.5579 15.3027 13.5183C16.5115 14.6127 16.5922 15.723 16.4187 16.2425Z" fill="#333333"/>
<path d="M29.5141 36.0587C28.795 36.4862 28.0393 36.8682 27.2681 37.1951C26.9286 37.3385 26.7704 37.7299 26.9139 38.0693C27.0213 38.3234 27.2688 38.4761 27.5282 38.4761C27.6156 38.4761 27.703 38.4587 27.7877 38.4234C28.6155 38.0733 29.4253 37.6632 30.1958 37.2051C30.512 37.017 30.6168 36.6082 30.428 36.2908C30.24 35.9741 29.8304 35.8714 29.5141 36.0587Z" fill="#333333"/>
<path d="M39.982 19.1388C39.9659 18.7707 39.6544 18.4986 39.2869 18.5012C38.9187 18.5172 38.6331 18.828 38.6491 19.1961C38.6598 19.4609 38.6658 19.7263 38.6658 19.9937C38.6658 20.5665 38.6397 21.1448 38.5877 21.7122C38.5544 22.079 38.8245 22.4038 39.1915 22.4371C39.2122 22.4385 39.2328 22.4398 39.2528 22.4398C39.5944 22.4398 39.8846 22.1797 39.9166 21.8336C39.972 21.2254 40 20.6066 40 19.9937C40 19.7076 39.994 19.4221 39.982 19.1388Z" fill="#333333"/>
<path d="M33.999 19.3755H33.9963C33.6287 19.3755 33.3306 19.6722 33.3293 20.0397C33.3259 20.9046 33.2399 21.7682 33.0738 22.6051C33.0017 22.9666 33.2365 23.3174 33.5975 23.3894C33.6422 23.3981 33.6855 23.402 33.7289 23.402C34.0404 23.402 34.3186 23.1827 34.3819 22.8652C34.566 21.9442 34.6601 20.9946 34.6634 20.0443C34.6647 19.6763 34.3672 19.3768 33.999 19.3755Z" fill="#333333"/>
<path d="M38.9913 23.6955C38.6304 23.6162 38.2743 23.8376 38.1915 24.1957C38.004 25.0099 37.7585 25.8202 37.4617 26.6031C37.3316 26.9479 37.5057 27.3327 37.8493 27.4627C37.928 27.4927 38.0074 27.5067 38.0861 27.5067C38.3549 27.5067 38.6091 27.342 38.7098 27.0752C39.0274 26.2363 39.2908 25.3681 39.4916 24.4951C39.5744 24.1363 39.3502 23.7782 38.9913 23.6955Z" fill="#333333"/>
<path d="M37.319 28.6204C36.9954 28.4437 36.5899 28.5651 36.4144 28.8885C36.0162 29.6214 35.5639 30.3363 35.0683 31.0125C34.8508 31.3099 34.9155 31.7267 35.2124 31.9441C35.3311 32.0315 35.4692 32.0735 35.606 32.0735C35.8121 32.0735 36.0142 31.9787 36.145 31.8007C36.676 31.0758 37.1609 30.3095 37.5872 29.524C37.7633 29.2006 37.6425 28.7958 37.319 28.6204Z" fill="#333333"/>
<path d="M15.1834 32.4382C14.3842 32.1289 13.6098 31.7387 12.8813 31.2786C12.5711 31.0812 12.1575 31.1739 11.9614 31.4853C11.7639 31.7967 11.8574 32.2089 12.1682 32.4056C12.9694 32.9124 13.8218 33.3419 14.7024 33.682C14.7811 33.7127 14.8625 33.7273 14.9432 33.7273C15.21 33.7273 15.4628 33.5652 15.5649 33.3012C15.6977 32.9571 15.5276 32.5709 15.1834 32.4382Z" fill="#333333"/>
<path d="M10.3311 35.9801C9.61538 35.5466 8.9223 35.0611 8.2712 34.5363C7.98305 34.3041 7.56342 34.3502 7.33265 34.6363C7.1018 34.923 7.14652 35.3431 7.43341 35.5739C8.13181 36.1368 8.8736 36.6569 9.64008 37.121C9.74812 37.1864 9.86686 37.2171 9.98498 37.2171C10.2104 37.2171 10.4313 37.1031 10.556 36.8957C10.7474 36.5809 10.646 36.1707 10.3311 35.9801Z" fill="#333333"/>
<path d="M7.52803 26.4024C7.86293 26.2497 8.01098 25.8542 7.85823 25.5194C7.68281 25.1333 7.52404 24.7358 7.38724 24.3398C7.2685 23.9917 6.88897 23.8043 6.54008 23.9257C6.19119 24.0457 6.00639 24.4251 6.12647 24.7733C6.27586 25.2101 6.45065 25.6469 6.64413 26.0724C6.75623 26.3177 6.99833 26.4625 7.25185 26.4625C7.34464 26.4624 7.43868 26.443 7.52803 26.4024Z" fill="#333333"/>
<path d="M4.81706 30.8891C4.60224 30.591 4.18597 30.523 3.88578 30.7377C3.58693 30.9531 3.51954 31.3692 3.73436 31.668C4.25804 32.3962 4.83574 33.0945 5.45206 33.7453C5.58346 33.884 5.76021 33.954 5.93704 33.954C6.10183 33.954 6.26654 33.8934 6.39529 33.7713C6.6628 33.5179 6.67413 33.0958 6.42132 32.8284C5.84566 32.2208 5.30603 31.5687 4.81706 30.8891Z" fill="#333333"/>
<path d="M16.6522 19.3268C15.9665 19.3268 15.4215 20.0423 15.158 20.4692C14.6437 21.3001 14.2214 22.6259 14.7217 23.6262C15.0772 24.3377 15.6049 24.4438 15.8877 24.4438C16.5494 24.4438 17.0718 23.911 17.3926 23.4655C17.6801 23.0667 17.9863 22.4712 17.9863 21.9943C17.9864 21.1287 17.9864 19.3268 16.6522 19.3268ZM15.9412 23.0773C15.9332 23.064 15.9238 23.0487 15.9151 23.03C15.783 22.7665 15.8064 22.3177 15.9772 21.8309C16.1407 21.3674 16.3875 20.9967 16.5689 20.7979C16.615 20.998 16.6523 21.3561 16.6523 21.987C16.6309 22.253 16.2106 22.9119 15.9412 23.0773Z" fill="#333333"/>
<path d="M9.14973 27.7521C8.93561 27.4527 8.51934 27.384 8.21845 27.5974C7.91897 27.8121 7.85026 28.2289 8.06437 28.5277C8.61401 29.2959 9.24111 30.0148 9.92818 30.665C10.0569 30.787 10.2217 30.8471 10.3864 30.8471C10.5632 30.8471 10.7406 30.777 10.8714 30.6383C11.1249 30.3709 11.1129 29.9488 10.8454 29.696C10.2197 29.1052 9.64933 28.451 9.14973 27.7521Z" fill="#333333"/>
<path d="M2.45826 26.4557C2.32951 26.1103 1.94529 25.9329 1.60109 26.0609C1.25557 26.1882 1.07874 26.5716 1.20616 26.9171C1.51635 27.7567 1.88658 28.5843 2.30887 29.3786C2.42894 29.604 2.65979 29.7321 2.89853 29.7321C3.00391 29.7321 3.11069 29.7074 3.21075 29.6547C3.53626 29.482 3.66032 29.0779 3.48694 28.7524C3.09334 28.0116 2.7464 27.2387 2.45826 26.4557Z" fill="#333333"/>
<path d="M20.2392 33.3292L19.9878 33.3313C19.208 33.3313 18.4268 33.2633 17.6677 33.1299C17.3041 33.0665 16.9585 33.3086 16.8945 33.6714C16.8318 34.0341 17.0739 34.3796 17.4369 34.4436C18.2721 34.5903 19.1306 34.665 19.9878 34.665L20.2639 34.663C20.6321 34.6557 20.925 34.3516 20.919 33.9835C20.911 33.6152 20.5821 33.3238 20.2392 33.3292Z" fill="#333333"/>
<path d="M14.9353 37.9753C14.1301 37.7492 13.3329 37.4665 12.5638 37.1337C12.2249 36.9857 11.8333 37.1431 11.6866 37.4805C11.5405 37.8179 11.6953 38.2107 12.0335 38.3574C12.8573 38.7141 13.7125 39.0176 14.5757 39.2597C14.6358 39.2763 14.6958 39.2844 14.7558 39.2844C15.0474 39.2844 15.3149 39.0917 15.3976 38.7976C15.4976 38.4428 15.2902 38.0747 14.9353 37.9753Z" fill="#333333"/>
<path d="M19.9083 38.6662C19.0678 38.6628 18.2239 38.6028 17.3981 38.4882C17.0318 38.4368 16.6963 38.6929 16.6456 39.0577C16.5949 39.4225 16.8497 39.7592 17.2146 39.8099C18.0991 39.932 19.0031 39.9966 19.9029 40H19.9056C20.2731 40 20.5713 39.7032 20.5726 39.3358C20.5741 38.9676 20.2772 38.6675 19.9083 38.6662Z" fill="#333333"/>
<path d="M1.74916 24.0403C1.56905 23.2253 1.44233 22.3891 1.37424 21.5535C1.34352 21.1874 1.01738 20.9133 0.654503 20.944C0.286933 20.974 0.0141093 21.2961 0.0441277 21.6629C0.118158 22.5585 0.253553 23.4548 0.446406 24.3284C0.515746 24.6398 0.791306 24.8512 1.09751 24.8512C1.14488 24.8512 1.19358 24.8466 1.24229 24.8359C1.60173 24.7565 1.82851 24.3997 1.74916 24.0403Z" fill="#333333"/>
</svg>
