<svg width="57" height="57" viewBox="0 0 57 57" fill="none" xmlns="http://www.w3.org/2000/svg">
<path d="M17.7133 46.3945L8.71451 35.6702C8.35971 35.2473 8.37017 34.6537 8.73787 34.3452L11.4024 32.1094C11.7701 31.8009 12.3565 31.8936 12.7113 32.3165L21.71 43.0408C22.0648 43.4636 22.0544 44.0572 21.6867 44.3657L19.0222 46.6015C18.6545 46.9101 18.0681 46.8173 17.7133 46.3945ZM37.6036 34.9259C35.1776 36.9616 30.5286 40.1629 25.2494 43.3709C24.8752 43.5987 24.351 43.4825 24.0283 43.098L13.0575 30.0235C12.7348 29.639 12.7115 29.1025 13.0008 28.7736C17.0767 24.1317 21.0367 20.1092 23.4627 18.0735C30.8207 11.8994 39.9502 10.6665 43.8557 15.3208C47.7611 19.9751 44.9616 28.7518 37.6036 34.9259ZM38.3865 27.7422C40.5901 25.8932 40.6529 22.3264 38.5267 19.7924C36.4004 17.2584 32.8768 16.7009 30.6733 18.5499C28.4698 20.3989 28.4069 23.9657 30.5332 26.4997C32.6594 29.0337 36.183 29.5912 38.3865 27.7422Z" fill="#333333"/>
<path d="M32.3909 51.0484C31.7826 51.6006 30.6622 50.9038 30.7201 50.0015L31.2268 41.9556C34.4164 39.8666 37.1693 37.9013 38.8892 36.4581C39.7392 35.7449 40.515 34.9947 41.2478 34.2284C41.893 36.1959 42.4547 41.9355 32.3909 51.0484ZM37.1945 20.9103C35.774 19.2174 33.4311 18.8468 31.9589 20.082C30.4868 21.3173 30.445 23.689 31.8655 25.3819C33.286 27.0748 35.6289 27.4455 37.1011 26.2102C38.5732 24.9749 38.615 22.6032 37.1945 20.9103ZM22.1773 16.5415C23.0272 15.8283 23.9007 15.1945 24.7826 14.606C22.9571 13.6289 17.4021 12.0791 6.68014 20.4076C6.03075 20.9107 6.52237 22.1351 7.42102 22.2348L15.4327 23.1329C18.0438 20.3545 20.4573 17.9847 22.1773 16.5415Z" fill="#333333"/>
</svg>
