<svg width="50" height="50" viewBox="0 0 50 50" fill="none" xmlns="http://www.w3.org/2000/svg">
<path d="M40.121 34.2905C38.1718 34.2905 36.3562 34.7411 34.8253 35.5158L19.3744 26.9391C19.6225 26.2506 19.7581 25.5244 19.7581 24.7727C19.7581 24.0209 19.6225 23.2947 19.3744 22.6063L34.4082 14.261C36.0212 15.172 37.9915 15.7095 40.1208 15.7095C45.5768 15.7095 49.9999 12.1928 49.9999 7.8548C49.9999 3.51682 45.5769 0 40.121 0C34.665 0 30.2419 3.51671 30.2419 7.85469C30.2419 8.4276 30.3212 8.98557 30.4676 9.5236L15.0521 18.0808C13.5474 17.3439 11.7761 16.918 9.87903 16.918C4.42306 16.918 0 20.4347 0 24.7727C0 29.1107 4.42292 32.6274 9.87903 32.6274C11.7759 32.6274 13.5474 32.2014 15.0521 31.4646L30.5867 40.0878C30.3633 40.7438 30.2419 41.4332 30.2419 42.1453C30.2419 46.4833 34.665 50 40.121 50C45.5769 50 50 46.4833 50 42.1453C50 37.8073 45.5769 34.2905 40.121 34.2905Z" fill="white"/>
</svg>
